<?xml version="1.0" encoding="UTF-8"?>
<!DOCTYPE svg PUBLIC "-//W3C//DTD SVG 1.1//EN" "http://www.w3.org/Graphics/SVG/1.1/DTD/svg11.dtd">
<svg xmlns="http://www.w3.org/2000/svg" version="1.1" width="1024px" height="1024px"
    style="shape-rendering:geometricPrecision; text-rendering:geometricPrecision; image-rendering:optimizeQuality; fill-rule:evenodd; clip-rule:evenodd"
    xmlns:xlink="http://www.w3.org/1999/xlink">
    <g>
        <path style="opacity:0.907"
            d="M 475.5,39.5 C 477.591,39.3184 479.591,39.6518 481.5,40.5C 500.131,68.6035 518.297,96.9368 536,125.5C 556.957,103.587 577.457,81.2541 597.5,58.5C 603.35,51.8163 609.683,45.6497 616.5,40C 618.112,39.2797 619.612,39.4464 621,40.5C 622.451,67.4038 624.284,94.4038 626.5,121.5C 627.167,123.833 627.833,126.167 628.5,128.5C 643.048,110.454 659.048,93.9543 676.5,79C 679.829,78.178 682.495,76.3447 684.5,73.5C 686.045,72.5481 687.712,72.2148 689.5,72.5C 683.529,88.7359 678.029,105.069 673,121.5C 668.686,142.015 665.52,162.682 663.5,183.5C 660.482,183.665 657.482,183.498 654.5,183C 648.873,181.177 643.206,179.51 637.5,178C 530.98,156.67 429.98,171.503 334.5,222.5C 333.328,222.081 332.328,221.415 331.5,220.5C 321.521,192.348 309.021,165.348 294,139.5C 290.078,133.996 285.911,128.662 281.5,123.5C 280.253,121.677 279.586,119.677 279.5,117.5C 289.298,120.113 298.631,123.946 307.5,129C 316.819,134.661 326.153,140.328 335.5,146C 340.754,150.758 346.421,154.925 352.5,158.5C 352.833,157.667 353.167,156.833 353.5,156C 349.282,134.856 345.449,113.689 342,92.5C 340.978,84.5303 340.478,76.5303 340.5,68.5C 342.908,69.201 345.242,70.201 347.5,71.5C 378.904,93.0878 410.404,114.421 442,135.5C 453.232,103.482 464.398,71.4816 475.5,39.5 Z" />
    </g>
    <g>
        <path style="opacity:0.965"
            d="M 642.5,235.5 C 642.665,232.15 642.498,228.817 642,225.5C 639.214,216.568 636.381,207.568 633.5,198.5C 679.326,207.241 720.326,226.074 756.5,255C 759.106,256.938 760.939,259.438 762,262.5C 762.67,272.013 764.336,281.346 767,290.5C 773.526,307.918 780.359,325.251 787.5,342.5C 784.475,342.769 781.808,341.936 779.5,340C 748.014,308.99 712.347,284.156 672.5,265.5C 672.241,279.004 668.908,291.671 662.5,303.5C 661.672,304.415 660.672,305.081 659.5,305.5C 633.053,286.42 605.053,269.754 575.5,255.5C 533.433,259.592 494.933,273.592 460,297.5C 457.495,299.672 454.995,301.839 452.5,304C 457.97,307.968 463.304,312.134 468.5,316.5C 469.466,318.396 469.799,320.396 469.5,322.5C 460.384,323.383 452.051,326.549 444.5,332C 432.07,340.55 420.403,350.05 409.5,360.5C 412.304,361.105 414.971,361.938 417.5,363C 425.602,363.678 433.602,364.511 441.5,365.5C 441.041,372.414 441.874,379.08 444,385.5C 447.334,391.355 450.501,397.355 453.5,403.5C 458.833,407.5 463.5,412.167 467.5,417.5C 476.319,423.258 485.653,428.258 495.5,432.5C 501.152,433.748 506.819,434.915 512.5,436C 545.833,436.333 579.167,436.667 612.5,437C 620.52,437.788 628.187,439.622 635.5,442.5C 636.167,442.333 636.833,442.167 637.5,442C 625.348,429.347 613.014,416.847 600.5,404.5C 593.84,399.213 587.174,393.88 580.5,388.5C 578.234,387.686 575.9,387.186 573.5,387C 557.5,386.667 541.5,386.333 525.5,386C 521.687,384.738 517.687,384.071 513.5,384C 500.056,379.387 487.056,373.72 474.5,367C 472.324,365.323 470.324,363.489 468.5,361.5C 469.781,358.553 471.781,356.219 474.5,354.5C 492.006,340.16 511.839,331.16 534,327.5C 536.5,327.667 539,327.833 541.5,328C 556.233,333.92 570.9,340.254 585.5,347C 589.423,350.267 593.589,353.101 598,355.5C 608.872,345.31 621.705,339.977 636.5,339.5C 636.66,341.199 636.494,342.866 636,344.5C 631.137,350.23 627.303,356.563 624.5,363.5C 623.167,368.5 623.167,373.5 624.5,378.5C 628.909,383.58 633.909,387.914 639.5,391.5C 653.376,405.541 667.043,419.708 680.5,434C 682.527,434.498 684.527,434.331 686.5,433.5C 692.183,431.521 697.849,429.688 703.5,428C 708.679,427.946 713.679,427.279 718.5,426C 729.5,425.333 740.5,425.333 751.5,426C 760.549,427.388 769.549,429.055 778.5,431C 775.016,427.015 771.349,423.182 767.5,419.5C 754.475,408.803 741.475,398.137 728.5,387.5C 720.012,373.336 710.678,359.836 700.5,347C 700.645,346.228 700.978,345.561 701.5,345C 703.5,344.333 705.5,344.333 707.5,345C 718.616,350.391 729.283,356.558 739.5,363.5C 747.151,356.172 756.151,351.172 766.5,348.5C 770.966,349.788 774.466,352.454 777,356.5C 781.085,363.17 783.918,370.337 785.5,378C 784.203,383.134 781.203,386.967 776.5,389.5C 775.417,390.365 775.251,391.365 776,392.5C 784.654,400.987 793.154,409.654 801.5,418.5C 803.851,412.382 804.851,406.049 804.5,399.5C 806.288,399.215 807.955,399.548 809.5,400.5C 839.494,441.152 862.661,485.485 879,533.5C 893.235,583.377 897.735,634.377 892.5,686.5C 890.193,701.869 887.693,717.202 885,732.5C 880.826,747.195 876.326,761.862 871.5,776.5C 870.127,776.657 868.793,776.49 867.5,776C 860.96,768.961 854.293,762.128 847.5,755.5C 844.858,751.691 842.025,748.024 839,744.5C 838.333,743.167 837.667,743.167 837,744.5C 829.088,815.981 800.422,877.648 751,929.5C 731.585,949.944 709.918,967.277 686,981.5C 684.739,981.241 683.739,980.574 683,979.5C 678.826,962.992 674.659,946.659 670.5,930.5C 641.997,948.751 611.664,963.251 579.5,974C 563.985,977.955 548.319,981.289 532.5,984C 496.657,984.797 460.824,984.631 425,983.5C 397.748,978.401 371.915,969.401 347.5,956.5C 345.521,953.09 345.021,949.423 346,945.5C 358.738,893.261 362.738,840.261 358,786.5C 356.707,780.581 355.874,774.581 355.5,768.5C 352.982,756.765 350.316,745.099 347.5,733.5C 345.508,733.328 343.842,733.995 342.5,735.5C 314.451,778.396 281.118,816.896 242.5,851C 238.46,852.538 235.126,855.038 232.5,858.5C 230.577,859.648 228.577,860.148 226.5,860C 223.636,855.48 220.802,850.98 218,846.5C 213.256,834.599 208.923,822.599 205,810.5C 200.739,790.841 197.072,771.174 194,751.5C 191.346,718.326 190.846,684.992 192.5,651.5C 194.383,638.28 196.05,624.947 197.5,611.5C 175.194,617.372 152.861,623.706 130.5,630.5C 129.867,616.002 131.034,601.669 134,587.5C 146.854,534.519 168.854,485.519 200,440.5C 203.314,436.352 206.814,432.352 210.5,428.5C 209.092,427.757 207.759,426.923 206.5,426C 194.867,424.097 183.2,422.43 171.5,421C 170.426,420.261 169.759,419.261 169.5,418C 200.623,356.698 244.29,305.865 300.5,265.5C 301.672,265.919 302.672,266.585 303.5,267.5C 288.608,298.842 290.608,329.009 309.5,358C 314.382,363.884 319.882,369.051 326,373.5C 322.183,362.669 318.849,351.669 316,340.5C 315.333,328.5 315.333,316.5 316,304.5C 325.565,271.409 347.398,258.243 381.5,265C 389.663,266.098 397.163,268.931 404,273.5C 404.5,273.167 405,272.833 405.5,272.5C 394.255,251.872 376.922,240.205 353.5,237.5C 353.48,235.857 354.147,234.524 355.5,233.5C 392.833,215.111 431.833,202.277 472.5,195C 496.653,191.402 520.986,189.235 545.5,188.5C 559.037,189.643 572.704,190.643 586.5,191.5C 605.848,202.175 622.848,215.841 637.5,232.5C 638.94,233.952 640.606,234.952 642.5,235.5 Z M 642.5,235.5 C 644.225,235.843 644.725,236.843 644,238.5C 642.961,237.756 642.461,236.756 642.5,235.5 Z M 676.5,472.5 C 685.977,478.78 695.644,484.947 705.5,491C 712.466,494.6 719.8,497.1 727.5,498.5C 728.135,516.668 727.468,534.668 725.5,552.5C 711.24,563.162 696.907,573.829 682.5,584.5C 672.529,590.12 662.529,595.787 652.5,601.5C 642.717,605.473 632.717,608.64 622.5,611C 617.798,611.828 613.131,611.662 608.5,610.5C 593.992,584.356 579.659,558.022 565.5,531.5C 573.179,524.828 581.179,518.495 589.5,512.5C 597.018,508.978 604.018,504.644 610.5,499.5C 622.013,494.216 633.346,488.55 644.5,482.5C 654.74,479.03 665.073,476.197 675.5,474C 676.056,473.617 676.389,473.117 676.5,472.5 Z M 796.5,477.5 C 798.074,477.937 799.241,478.937 800,480.5C 811.749,510.912 815.415,542.245 811,574.5C 809.135,584.262 805.968,593.595 801.5,602.5C 791.867,583.367 779.033,566.7 763,552.5C 762.167,535.157 762.334,517.824 763.5,500.5C 775.085,493.567 786.085,485.901 796.5,477.5 Z M 728.5,607.5 C 738.855,607.168 749.188,607.501 759.5,608.5C 765.631,616.641 770.964,625.307 775.5,634.5C 777.074,639.628 778.407,644.795 779.5,650C 775.31,671.89 766.31,691.724 752.5,709.5C 746.117,716.552 739.117,722.885 731.5,728.5C 731.76,709.116 729.427,690.282 724.5,672C 722.741,671.202 721.074,671.369 719.5,672.5C 709.384,681.037 698.384,688.203 686.5,694C 677.822,697.271 669.155,700.438 660.5,703.5C 655.21,698.592 651.71,692.592 650,685.5C 644.082,676.21 638.582,666.71 633.5,657C 645.302,654.498 656.635,650.498 667.5,645C 676.034,639.568 684.7,634.402 693.5,629.5C 701.869,623.647 709.869,617.314 717.5,610.5C 721.589,610.112 725.256,609.112 728.5,607.5 Z" />
    </g>
</svg>